<?xml version="1.0" encoding="UTF-8" standalone="no"?>
<!DOCTYPE svg PUBLIC "-//W3C//DTD SVG 1.1//EN" "http://www.w3.org/Graphics/SVG/1.1/DTD/svg11.dtd">
<svg width="100%" height="100%" viewBox="0 0 2160 2160" version="1.1" xmlns="http://www.w3.org/2000/svg" xmlns:xlink="http://www.w3.org/1999/xlink" xml:space="preserve" xmlns:serif="http://www.serif.com/" style="fill-rule:evenodd;clip-rule:evenodd;stroke-linejoin:round;stroke-miterlimit:2;">
    <rect x="0" y="0" width="2160" height="2160" style="fill:rgb(248,243,237);"/>
    <g transform="matrix(0.892675,0,0,0.892675,117.509,99.1408)">
        <g transform="matrix(-1.92995,-0.129607,0.129607,-1.92995,3737.56,6148.85)">
            <path d="M1065.58,2888.77C1065.09,2878.94 1066.83,2867.52 1069.93,2856.78C1109.34,2720.31 1513.75,2308.66 1814.26,2178.16C1926.68,2129.34 2029.43,2055.76 2027.64,2110.99C2028.51,2115.31 2028.44,2119.55 2027.54,2123.71C2028.07,2127 2028.05,2130.24 2027.55,2133.44C2033.09,2186.51 1898.32,2227.26 1840.82,2243.36C1663.96,2332.55 1537.78,2433.6 1443.62,2500.91C1356.3,2563.33 1235.9,2723.07 1215,2755.53C1188,2797.46 1186.36,2841.08 1158.09,2888.37C1082.16,2960.34 1062.45,2934.55 1065.2,2898.69C1065.12,2895.51 1065.25,2892.18 1065.58,2888.77ZM1058.42,2672.58C1049.98,2619.03 1201.07,2482.03 1316.53,2404.31C1447.48,2316.15 1613.7,2219.68 1623.99,2233.2C1625.7,2235.44 1624.01,2238.79 1619.28,2243.41C1621.46,2243.31 1622.95,2243.72 1623.67,2244.67C1624.96,2246.36 1624.31,2248.68 1621.88,2251.71C1622.58,2251.92 1623.1,2252.25 1623.45,2252.7C1633.74,2266.22 1520.8,2319.82 1360.82,2448.94C1204.44,2575.14 1132.44,2741.23 1070.35,2708.79C1059.99,2703.38 1056.28,2694.3 1057.89,2682.51C1057.59,2679.45 1057.78,2676.13 1058.42,2672.58ZM1643.66,2211.44C1643.38,2210.03 1643.24,2208.55 1643.24,2207.01C1643.24,2196.82 1647.79,2183.6 1664.48,2183.59C1681.1,2183.57 1681.94,2203.79 1681.79,2208.13C1681.75,2209.23 1681.45,2210.59 1680.88,2212.05C1681.46,2215.38 1681.51,2218.25 1681.46,2219.6C1681.44,2220.38 1681.28,2221.3 1680.98,2222.29C1681.26,2224.65 1681.28,2226.6 1681.24,2227.63C1681.08,2232.73 1675.1,2243.55 1663.42,2243.92C1648.77,2244.39 1642.69,2236.7 1642.69,2226.51C1642.69,2224.85 1642.81,2223.12 1643.09,2221.37C1642.97,2220.43 1642.91,2219.47 1642.91,2218.48C1642.91,2216.22 1643.13,2213.82 1643.66,2211.44Z" style="fill:none;stroke:rgb(4,30,66);stroke-width:8.69px;"/>
        </g>
        <g transform="matrix(-1.92995,-0.129607,0.129607,-1.92995,3737.56,6148.85)">
            <path d="M1215.55,2736.02C1188.55,2777.95 1186.9,2821.57 1158.63,2868.86C1067.25,2955.49 1057.31,2900.49 1069.93,2856.78C1109.34,2720.31 1513.75,2308.66 1814.26,2178.16C1926.68,2129.34 2029.43,2055.76 2027.64,2110.99C2038.62,2165.5 1899.92,2207.46 1841.36,2223.85C1664.51,2313.04 1538.33,2414.1 1444.17,2481.41C1356.85,2543.83 1236.45,2703.56 1215.55,2736.02ZM1623.99,2233.2C1634.29,2246.71 1521.34,2300.31 1361.36,2429.43C1204.99,2555.63 1132.99,2721.72 1070.89,2689.28C1008.81,2656.84 1185.58,2492.46 1316.53,2404.31C1447.48,2316.15 1613.7,2219.68 1623.99,2233.2ZM1664.48,2183.59C1681.1,2183.57 1681.94,2203.79 1681.79,2208.13C1681.63,2213.22 1675.64,2224.05 1663.96,2224.42C1649.32,2224.88 1643.24,2217.2 1643.24,2207.01C1643.24,2196.82 1647.79,2183.6 1664.48,2183.59Z" style="fill:rgb(4,30,66);"/>
        </g>
        <g transform="matrix(-1.92995,-0.129607,0.129607,-1.92995,3739.67,6126.76)">
            <path d="M1215.55,2736.02C1188.55,2777.95 1186.9,2821.57 1158.63,2868.86C1067.25,2955.49 1057.31,2900.49 1069.93,2856.78C1109.34,2720.31 1513.75,2308.66 1814.26,2178.16C1926.68,2129.34 2029.43,2055.76 2027.64,2110.99C2038.62,2165.5 1899.92,2207.46 1841.36,2223.85C1664.51,2313.04 1538.33,2414.1 1444.17,2481.41C1356.85,2543.83 1236.45,2703.56 1215.55,2736.02ZM1623.99,2233.2C1634.29,2246.71 1521.34,2300.31 1361.36,2429.43C1204.99,2555.63 1132.99,2721.72 1070.89,2689.28C1008.81,2656.84 1185.58,2492.46 1316.53,2404.31C1447.48,2316.15 1613.7,2219.68 1623.99,2233.2ZM1664.48,2183.59C1681.1,2183.57 1681.94,2203.79 1681.79,2208.13C1681.63,2213.22 1675.64,2224.05 1663.96,2224.42C1649.32,2224.88 1643.24,2217.2 1643.24,2207.01C1643.24,2196.82 1647.79,2183.6 1664.48,2183.59Z" style="fill:rgb(248,243,237);"/>
        </g>
        <g transform="matrix(-1.92995,-0.129607,0.129607,-1.92995,3741.14,6111.28)">
            <path d="M1215.55,2736.02C1188.55,2777.95 1186.9,2821.57 1158.63,2868.86C1067.25,2955.49 1057.31,2900.49 1069.93,2856.78C1109.34,2720.31 1513.75,2308.66 1814.26,2178.16C1926.68,2129.34 2029.43,2055.76 2027.64,2110.99C2038.62,2165.5 1899.92,2207.46 1841.36,2223.85C1664.51,2313.04 1538.33,2414.1 1444.17,2481.41C1356.85,2543.83 1236.45,2703.56 1215.55,2736.02ZM1623.99,2233.2C1634.29,2246.71 1521.34,2300.31 1361.36,2429.43C1204.99,2555.63 1132.99,2721.72 1070.89,2689.28C1008.81,2656.84 1185.58,2492.46 1316.53,2404.31C1447.48,2316.15 1613.7,2219.68 1623.99,2233.2ZM1664.48,2183.59C1681.1,2183.57 1681.94,2203.79 1681.79,2208.13C1681.63,2213.22 1675.64,2224.05 1663.96,2224.42C1649.32,2224.88 1643.24,2217.2 1643.24,2207.01C1643.24,2196.82 1647.79,2183.6 1664.48,2183.59Z" style="fill:rgb(228,2,43);"/>
            <path d="M1215.55,2736.02C1188.55,2777.95 1186.9,2821.57 1158.63,2868.86C1067.25,2955.49 1057.31,2900.49 1069.93,2856.78C1109.34,2720.31 1513.75,2308.66 1814.26,2178.16C1926.68,2129.34 2029.43,2055.76 2027.64,2110.99C2038.62,2165.5 1899.92,2207.46 1841.36,2223.85C1664.51,2313.04 1538.33,2414.1 1444.17,2481.41C1356.85,2543.83 1236.45,2703.56 1215.55,2736.02ZM1212.14,2733.83C1233.13,2701.22 1354.1,2540.81 1441.81,2478.11C1536.09,2410.71 1662.45,2309.54 1839.54,2220.23C1839.77,2220.12 1840.02,2220.02 1840.27,2219.95C1880.89,2208.58 1960.47,2184.9 2000.8,2153.12C2016.82,2140.5 2026.69,2126.81 2023.67,2111.79C2023.61,2111.48 2023.58,2111.17 2023.59,2110.86C2023.8,2104.33 2022.56,2099.95 2019.32,2097.58C2015.9,2095.09 2010.75,2094.89 2004.22,2095.92C1967.72,2101.66 1894.18,2147.87 1815.88,2181.87C1606,2273.02 1345.36,2501.67 1194.36,2677.32C1130.01,2752.18 1085.55,2817.29 1073.82,2857.91C1070.21,2870.4 1068.47,2883.86 1070.25,2894.36C1071.28,2900.48 1073.45,2905.55 1077.56,2908.34C1081.68,2911.15 1087.55,2911.43 1095.54,2908.86C1109.48,2904.36 1128.88,2891.42 1155.44,2866.3C1169.22,2843.11 1176.54,2820.8 1183.72,2799.16C1191.14,2776.78 1198.44,2755.1 1212.14,2733.83ZM1623.99,2233.2C1634.29,2246.71 1521.34,2300.31 1361.36,2429.43C1204.99,2555.63 1132.99,2721.72 1070.89,2689.28C1008.81,2656.84 1185.58,2492.46 1316.53,2404.31C1447.48,2316.15 1613.7,2219.68 1623.99,2233.2ZM1620.15,2236.01C1619.78,2236 1619.37,2236.01 1619.02,2236.04C1615.18,2236.41 1609.46,2238.21 1602.13,2241.11C1550.25,2261.65 1423.28,2337.33 1318.8,2407.67C1227.62,2469.05 1114.02,2567.5 1075.3,2632.17C1067.38,2645.39 1062.62,2657.08 1062.16,2666.67C1061.77,2675.09 1065.01,2681.64 1072.77,2685.69C1090.07,2694.73 1107.97,2686.43 1128.8,2668.26C1181.14,2622.58 1249.3,2514.66 1358.82,2426.28C1486.75,2323.03 1584.59,2268.09 1613.34,2243.33C1615.96,2241.07 1617.97,2239.11 1619.29,2237.39C1619.61,2236.97 1619.91,2236.45 1620.15,2236.01ZM1664.48,2183.59C1681.1,2183.57 1681.94,2203.79 1681.79,2208.13C1681.63,2213.22 1675.64,2224.05 1663.96,2224.42C1649.32,2224.88 1643.24,2217.2 1643.24,2207.01C1643.24,2196.82 1647.79,2183.6 1664.48,2183.59ZM1664.48,2187.64C1659.11,2187.65 1655.26,2189.24 1652.62,2191.81C1648.51,2195.81 1647.29,2201.89 1647.29,2207.01C1647.29,2210.89 1648.32,2214.35 1650.88,2216.75C1653.6,2219.3 1657.88,2220.56 1663.83,2220.37C1669.33,2220.19 1673.19,2217.02 1675.45,2213.68C1676.86,2211.61 1677.69,2209.49 1677.74,2208L1677.74,2207.99C1677.8,2206.08 1677.66,2200.67 1675.66,2195.75C1673.96,2191.53 1670.74,2187.64 1664.49,2187.64L1664.48,2187.64Z" style="fill:rgb(248,243,237);"/>
        </g>
    </g>
</svg>
