<svg width="210" height="51" viewBox="0 0 210 51" fill="none" xmlns="http://www.w3.org/2000/svg"><script xmlns=""/>
<path d="M13.752 37.085C18.1629 36.1511 22.603 35.2747 27.0578 34.4845C27.8638 34.3408 28.6112 34.9443 28.6112 35.7488V43.9381C28.6112 44.6852 28.069 45.3317 27.3069 45.4754C18.7637 47.0414 10.323 48.866 1.97024 50.9349C1.2815 51.1073 0.62207 50.6044 0.62207 49.9004V40.9497C0.62207 39.7141 0.724648 38.7084 1.29615 37.5591L15.6131 12.4022H2.65897C1.92627 12.4022 1.54527 12.0143 1.54527 11.0661V2.73317C1.54527 1.81368 1.91162 1.3252 2.67363 1.3252H27.5121C28.2595 1.3252 28.6258 1.77058 28.6258 2.57513V9.87363C28.6258 11.1236 28.3767 12.0287 27.7466 13.1062L13.7667 37.085H13.752Z" fill="#F7F3ED"/>
<path d="M102.784 38.2914C99.7791 38.2914 96.7741 38.3487 93.7831 38.4204C93.1961 38.4347 92.665 38.0764 92.4413 37.5317L87.843 26.2232L83.021 37.9044C82.7834 38.492 82.2243 38.879 81.6093 38.922C78.7161 39.0797 75.8229 39.2803 72.9437 39.5096C72.2169 39.567 71.6858 38.8073 71.9933 38.1194L80.2676 19.7019L73.1394 2.60298C72.8459 1.95801 73.2512 1.2987 74.0479 1.32737H82.5458C83.4682 1.32737 83.8736 1.67135 84.1811 2.51698L88.0107 12.7935L92.1618 2.50265C92.5532 1.68568 92.8746 1.32737 93.825 1.32737H102.337C103.12 1.28437 103.511 1.88634 103.217 2.54565L95.656 19.3866L103.637 36.9298C103.93 37.5747 103.469 38.3057 102.784 38.3057" fill="#F7F3ED"/>
<path d="M176.169 1.89645C176.021 1.58885 175.71 1.3252 175.236 1.3252H165.582C165.079 1.3252 164.709 1.51561 164.472 1.73533C164.235 1.95504 164.042 2.29193 163.865 2.71671L158.46 16.6173L153.115 2.65812C152.923 2.23334 152.701 1.9111 152.464 1.69138C152.227 1.47167 151.842 1.3252 151.339 1.3252H141.655C141.181 1.3252 140.87 1.48632 140.737 1.77927C140.604 2.05757 140.604 2.35053 140.767 2.65812L152.464 28.4671V40.4489C152.464 41.3131 153.115 42.0454 153.989 42.148C156.995 42.5142 160 42.895 162.991 43.3198C163.761 43.4223 164.457 42.8364 164.457 42.0601V29.3899L176.184 2.86319C176.317 2.5263 176.317 2.20405 176.169 1.89645Z" fill="#F7F3ED"/>
<path d="M48.0637 26.8549L50.8711 11.1139L52.9398 26.2596C51.3144 26.4483 49.6743 26.6516 48.0637 26.8695M59.3674 2.45922C59.2049 1.73316 58.7911 1.29752 57.9193 1.32656H44.3106C43.4092 1.29752 42.9955 1.79124 42.8182 2.54635L33.7457 43.2204C33.5684 44.0191 34.2628 44.7306 35.0755 44.5854C38.0751 44.0917 41.0746 43.627 44.0889 43.1914C44.7538 43.0897 45.271 42.596 45.3892 41.9571L46.5418 35.5241C49.0537 35.1756 51.5804 34.8562 54.1071 34.5657L54.9346 40.563C55.0232 41.231 55.6438 41.6957 56.3235 41.6231C59.4117 41.2746 62.4999 40.9551 65.6029 40.6647C66.386 40.5921 66.9475 39.866 66.785 39.0964L59.3674 2.45922Z" fill="#F7F3ED"/>
<path d="M125.469 31.2678C124.143 31.1953 122.817 31.1373 121.492 31.0793V23.4088C122.831 23.4668 124.184 23.5248 125.523 23.5973C125.523 23.5973 129.145 23.8003 129.145 27.5413C129.145 31.2823 125.482 31.2678 125.482 31.2678M121.505 9.22773H124.553C125.496 9.22773 128.093 9.83673 128.093 12.7947C128.093 15.7528 126.015 16.2748 124.908 16.2313C123.774 16.1733 122.64 16.1298 121.505 16.0863V9.24223V9.22773ZM133.696 19.4938C133.696 19.4938 137.646 18.0003 137.646 11.5767C137.646 3.52921 130.443 1.3252 127.245 1.3252H113.811C112.458 1.3252 111.364 2.4852 111.364 3.92071V36.2123C111.364 37.6334 112.43 38.7789 113.77 38.8079C119.195 38.9239 124.594 39.1559 129.951 39.5039C131.755 39.6199 139.368 38.7209 139.368 29.0638C139.368 23.1043 136.525 19.9578 133.71 19.4938" fill="#F7F3ED"/>
<path d="M198.322 20.3278C193.916 17.989 189.73 17.3312 189.73 13.6913C189.73 10.4023 194.269 8.75042 204.139 14.4953C204.858 14.9192 205.784 14.393 205.784 13.5597V4.96437C205.784 4.29194 205.446 3.67799 204.873 3.32716C203.125 2.21619 198.866 0.0527344 192.345 0.0527344C184.326 0.0527344 178.48 6.54311 178.48 13.9398C178.48 19.8162 181.227 23.0029 187.968 26.789C192.33 29.2302 196.487 31.2475 196.487 34.0249C196.487 38.7172 189.143 38.191 179.302 30.7212C178.583 30.1803 177.555 30.692 177.555 31.5837V41.3339C177.555 41.904 177.819 42.4594 178.26 42.8249C180.154 44.4036 186.323 48.4236 194.254 48.4236C201.686 48.4236 208.104 42.3863 208.104 33.8348C208.104 26.175 202.802 22.7106 198.337 20.3425" fill="#F7F3ED"/>
<path d="M204.833 48.0538V50.8596C204.833 50.9418 204.79 50.9691 204.719 50.9691H203.838C203.766 50.9691 203.724 50.9281 203.724 50.8596V48.0538H203.126C203.055 48.0538 203.013 48.0127 203.013 47.9443V47.2599C203.013 47.1915 203.055 47.1504 203.126 47.1504H205.445C205.53 47.1504 205.558 47.1915 205.558 47.2599V47.9443C205.558 48.0127 205.516 48.0538 205.445 48.0538H204.833Z" fill="#F7F3ED"/>
<path d="M207.266 50.0417C207.126 50.0417 207.049 49.9872 207.018 49.9053L206.661 48.5415V50.8737C206.661 50.8737 206.63 50.9691 206.552 50.9691H205.667C205.667 50.9691 205.559 50.9419 205.559 50.8737V47.2459C205.559 47.2459 205.59 47.1504 205.667 47.1504H206.676C206.769 47.1504 206.831 47.1504 206.878 47.1777C206.925 47.1913 206.956 47.2322 206.971 47.2868L207.468 49.2371L207.965 47.2868C207.965 47.2868 208.011 47.1913 208.058 47.1777C208.104 47.164 208.166 47.1504 208.26 47.1504H209.269C209.269 47.1504 209.377 47.1777 209.377 47.2459V50.8737C209.377 50.8737 209.346 50.9691 209.269 50.9691H208.384C208.384 50.9691 208.275 50.9419 208.275 50.8737V48.5415L207.918 49.9053C207.887 50.0008 207.809 50.0417 207.67 50.0417H207.22H207.266Z" fill="#F7F3ED"/>
</svg>